<svg xmlns="http://www.w3.org/2000/svg" width="1024" height="1024" viewBox="0 0 1024 1024">
  <rect width="1024" height="1024" fill="#e9e6dd"/>

  <path d="M285 118h335l160 160v574c0 24-20 44-44 44H285c-24 0-44-20-44-44V162c0-24 20-44 44-44Z"
        fill="#fbfaf5" stroke="#202426" stroke-width="28" stroke-linejoin="round"/>
  <path d="M620 119v122c0 22 18 40 40 40h119"
        fill="#dedbd2" stroke="#202426" stroke-width="24" stroke-linejoin="round"/>

  <path d="M344 421h238M344 508h238M344 595h168"
        fill="none" stroke="#737773" stroke-width="18" stroke-linecap="round"/>

  <path d="M382 727 642 467" fill="none" stroke="#202426" stroke-width="35" stroke-linecap="round"/>
  <path d="m609 435 106-106-24 145-49 49-75-75Z" fill="#202426" stroke="#202426" stroke-width="12" stroke-linejoin="round"/>
  <circle cx="649" cy="450" r="10" fill="#e9e6dd"/>
  <path d="m382 727-52 83 83-52" fill="#202426" stroke="#202426" stroke-width="12" stroke-linejoin="round"/>
</svg>
